<svg xmlns="http://www.w3.org/2000/svg" width="1600" height="1040" viewBox="0 0 1600 1040">
  <defs>
    <filter id="softShadow" x="-20%" y="-20%" width="140%" height="140%">
      <feDropShadow dx="0" dy="10" stdDeviation="18" flood-color="#182230" flood-opacity="0.10"/>
    </filter>
    <filter id="microShadow" x="-20%" y="-20%" width="140%" height="140%">
      <feDropShadow dx="0" dy="2" stdDeviation="5" flood-color="#182230" flood-opacity="0.08"/>
    </filter>
    <linearGradient id="navGrad" x1="0" y1="0" x2="0" y2="1">
      <stop offset="0%" stop-color="#152033"/>
      <stop offset="100%" stop-color="#101828"/>
    </linearGradient>
    <style>
      .font{font-family:"Microsoft YaHei UI","Segoe UI",Arial,sans-serif}
      .mono{font-family:"Cascadia Mono","Consolas",monospace}
      .bg{fill:#f5f7fb}
      .surface{fill:#fff}
      .soft{fill:#f8fafc}
      .line{stroke:#d9e2ec;stroke-width:1}
      .ink{fill:#172033}
      .muted{fill:#667085}
      .faint{fill:#98a2b3}
      .blue{fill:#1f6feb}
      .teal{fill:#0f766e}
      .amber{fill:#f59e0b}
      .red{fill:#d92d20}
      .h1{font-size:30px;font-weight:750}
      .h2{font-size:21px;font-weight:720}
      .body{font-size:18px}
      .small{font-size:15px}
      .xs{font-size:13px}
      .button{rx:8;ry:8}
      .pill{rx:999;ry:999}
    </style>
  </defs>

  <rect class="bg" width="1600" height="1040"/>

  <!-- App frame -->
  <rect x="22" y="20" width="1556" height="994" rx="18" class="surface" filter="url(#softShadow)"/>

  <!-- Sidebar -->
  <rect x="22" y="20" width="228" height="994" rx="18" fill="url(#navGrad)"/>
  <rect x="222" y="20" width="28" height="994" fill="#101828"/>
  <g class="font">
    <circle cx="72" cy="72" r="26" fill="#1f6feb"/>
    <rect x="60" y="55" width="25" height="34" rx="3" fill="#fff"/>
    <path d="M78 55 L85 63 L78 63 Z" fill="#dbeafe"/>
    <text x="108" y="68" class="h2" fill="#fff">PDF 文献</text>
    <text x="108" y="92" class="xs" fill="#b8c4d8">Literature Workbench</text>

    <rect x="42" y="140" width="176" height="44" rx="10" fill="#243042"/>
    <circle cx="64" cy="162" r="7" fill="#5aa2ff"/>
    <text x="88" y="168" class="body" fill="#fff">工作台</text>

    <g fill="#aebacf">
      <circle cx="64" cy="221" r="6"/><text x="88" y="227" class="body">复核队列</text>
      <circle cx="64" cy="276" r="6"/><text x="88" y="282" class="body">重复合并</text>
      <circle cx="64" cy="331" r="6"/><text x="88" y="337" class="body">AI 阅读</text>
      <circle cx="64" cy="386" r="6"/><text x="88" y="392" class="body">Zotero 导入</text>
      <circle cx="64" cy="441" r="6"/><text x="88" y="447" class="body">Obsidian</text>
    </g>

    <rect x="42" y="820" width="176" height="126" rx="14" fill="#1a2638" stroke="#314158"/>
    <text x="62" y="852" class="small" fill="#d8e2f1">今日扫描</text>
    <text x="62" y="895" font-size="38" font-weight="760" fill="#fff">128</text>
    <text x="126" y="895" class="small" fill="#aebacf">PDF</text>
    <text x="62" y="928" class="xs" fill="#8fb3ff">96 可导入 · 11 待复核</text>
  </g>

  <!-- Top bar -->
  <rect x="250" y="20" width="1328" height="96" rx="0" fill="#ffffff"/>
  <line x1="250" y1="116" x2="1578" y2="116" stroke="#e4e9f2"/>
  <text x="286" y="60" class="font h1 ink">科研 PDF 文献管理</text>
  <text x="286" y="91" class="font body muted">国标命名、待复核、Zotero / Obsidian、AI 粗读，一屏完成</text>

  <g class="font">
    <rect x="1108" y="42" width="98" height="42" class="button" fill="#ecfdf3" stroke="#b7ead0"/>
    <text x="1157" y="69" text-anchor="middle" class="small" fill="#087443">OCR 开</text>
    <rect x="1218" y="42" width="128" height="42" class="button" fill="#f8fafc" stroke="#d9e2ec"/>
    <text x="1282" y="69" text-anchor="middle" class="small muted">GB/T 7714</text>
    <rect x="1358" y="42" width="178" height="42" class="button" fill="#1f6feb"/>
    <text x="1447" y="69" text-anchor="middle" class="small" fill="#fff">开始扫描</text>
  </g>

  <!-- Scan command band -->
  <rect x="278" y="142" width="1268" height="116" rx="16" class="surface" filter="url(#microShadow)"/>
  <g class="font">
    <text x="306" y="180" class="h2 ink">扫描文件夹</text>
    <rect x="306" y="198" width="690" height="38" class="button" fill="#f8fafc" stroke="#d9e2ec"/>
    <text x="326" y="223" class="small muted mono">F:\Research\PDFs\trajectory_optimization</text>
    <rect x="1010" y="198" width="92" height="38" class="button" fill="#ffffff" stroke="#d9e2ec"/>
    <text x="1056" y="223" text-anchor="middle" class="small muted">选择</text>
    <text x="1130" y="180" class="small muted">Zotero collection</text>
    <rect x="1130" y="198" width="182" height="38" class="button" fill="#f8fafc" stroke="#d9e2ec"/>
    <text x="1148" y="223" class="small muted mono">low-thrust</text>
    <rect x="1328" y="198" width="88" height="38" class="button" fill="#eef4ff" stroke="#bdd4ff"/>
    <text x="1372" y="223" text-anchor="middle" class="small" fill="#1f6feb">去重</text>
    <rect x="1428" y="198" width="88" height="38" class="button" fill="#eef4ff" stroke="#bdd4ff"/>
    <text x="1472" y="223" text-anchor="middle" class="small" fill="#1f6feb">附件</text>
  </g>

  <!-- KPI strip -->
  <g class="font">
    <rect x="278" y="280" width="296" height="72" rx="14" fill="#ffffff" filter="url(#microShadow)"/>
    <rect x="298" y="300" width="34" height="34" rx="9" fill="#eef4ff"/><text x="315" y="324" text-anchor="middle" class="small" fill="#1f6feb">Σ</text>
    <text x="350" y="312" class="xs muted">总 PDF</text><text x="350" y="339" class="h2 ink">128</text>
    <rect x="594" y="280" width="296" height="72" rx="14" fill="#ffffff" filter="url(#microShadow)"/>
    <rect x="614" y="300" width="34" height="34" rx="9" fill="#ecfdf3"/><text x="631" y="324" text-anchor="middle" class="small" fill="#087443">✓</text>
    <text x="666" y="312" class="xs muted">可导入 Zotero</text><text x="666" y="339" class="h2 ink">96</text>
    <rect x="910" y="280" width="296" height="72" rx="14" fill="#ffffff" filter="url(#microShadow)"/>
    <rect x="930" y="300" width="34" height="34" rx="9" fill="#fff7e8"/><text x="947" y="324" text-anchor="middle" class="small" fill="#b7791f">!</text>
    <text x="982" y="312" class="xs muted">待复核</text><text x="982" y="339" class="h2 ink">11</text>
    <rect x="1226" y="280" width="320" height="72" rx="14" fill="#ffffff" filter="url(#microShadow)"/>
    <rect x="1246" y="300" width="34" height="34" rx="9" fill="#f1f5f9"/><text x="1263" y="324" text-anchor="middle" class="small" fill="#64748b">AI</text>
    <text x="1298" y="312" class="xs muted">AI 笔记 / OCR</text><text x="1298" y="339" class="h2 ink">12 / 4</text>
  </g>

  <!-- Main content -->
  <rect x="278" y="374" width="866" height="560" rx="16" class="surface" filter="url(#microShadow)"/>
  <g class="font">
    <text x="306" y="414" class="h2 ink">文献列表</text>
    <text x="404" y="414" class="small muted">可编辑建议文件名；双击进入复核</text>
    <rect x="834" y="390" width="78" height="34" class="button" fill="#f8fafc" stroke="#d9e2ec"/><text x="873" y="412" text-anchor="middle" class="xs muted">全选</text>
    <rect x="922" y="390" width="88" height="34" class="button" fill="#f8fafc" stroke="#d9e2ec"/><text x="966" y="412" text-anchor="middle" class="xs muted">反选</text>
    <rect x="1020" y="390" width="96" height="34" class="button" fill="#1f6feb"/><text x="1068" y="412" text-anchor="middle" class="xs" fill="#fff">导出</text>

    <rect x="306" y="442" width="810" height="40" rx="10" fill="#f8fafc" stroke="#d9e2ec"/>
    <text x="326" y="468" class="xs muted">状态</text><text x="394" y="468" class="xs muted">文件</text>
    <text x="574" y="468" class="xs muted">类型</text><text x="650" y="468" class="xs muted">标题</text>
    <text x="910" y="468" class="xs muted">建议文件名</text>

    <g class="small">
      <rect x="306" y="494" width="810" height="58" rx="10" fill="#ffffff" stroke="#edf2f7"/>
      <rect x="306" y="494" width="5" height="58" rx="3" fill="#12b76a"/>
      <text x="326" y="530" fill="#087443">通过</text><text x="394" y="530" class="ink">wang2025_dragfree.pdf</text>
      <text x="574" y="530" class="muted">论文</text><text x="650" y="530" class="ink">Adaptive Control for Test Mass...</text>
      <text x="910" y="530" class="muted">Wang 等. Adaptive...</text>

      <rect x="306" y="560" width="810" height="58" rx="10" fill="#fffaf0" stroke="#f4dfad"/>
      <rect x="306" y="560" width="5" height="58" rx="3" fill="#f59e0b"/>
      <text x="326" y="596" fill="#b7791f">复核</text><text x="394" y="596" class="ink">博士论文_低推力轨迹优化.pdf</text>
      <text x="574" y="596" class="muted">学位</text><text x="650" y="596" class="ink">低推力轨迹优化方法研究</text>
      <text x="910" y="596" class="muted">缺地点/导师</text>

      <rect x="306" y="626" width="810" height="58" rx="10" fill="#ffffff" stroke="#edf2f7"/>
      <rect x="306" y="626" width="5" height="58" rx="3" fill="#12b76a"/>
      <text x="326" y="662" fill="#087443">通过</text><text x="394" y="662" class="ink">rtbp_global_optimization.pdf</text>
      <text x="574" y="662" class="muted">论文</text><text x="650" y="662" class="ink">Global Optimization in RTBP...</text>
      <text x="910" y="662" class="muted">Li 等. Global...</text>

      <rect x="306" y="692" width="810" height="58" rx="10" fill="#f8fbff" stroke="#d8e8ff"/>
      <rect x="306" y="692" width="5" height="58" rx="3" fill="#1f6feb"/>
      <text x="326" y="728" fill="#1f6feb">OCR</text><text x="394" y="728" class="ink">扫描版硕士论文.pdf</text>
      <text x="574" y="728" class="muted">学位</text><text x="650" y="728" class="ink">小推力转移轨道快速设计...</text>
      <text x="910" y="728" class="muted">待确认学校</text>

      <rect x="306" y="758" width="810" height="58" rx="10" fill="#fff5f5" stroke="#ffd1d1"/>
      <rect x="306" y="758" width="5" height="58" rx="3" fill="#d92d20"/>
      <text x="326" y="794" fill="#b42318">失败</text><text x="394" y="794" class="ink">encrypted_manual.pdf</text>
      <text x="574" y="794" class="muted">PDF</text><text x="650" y="794" class="ink">加密文件，需手动处理</text>
      <text x="910" y="794" class="muted">不导入</text>
    </g>
  </g>

  <!-- Inspector -->
  <rect x="1166" y="374" width="380" height="560" rx="16" class="surface" filter="url(#microShadow)"/>
  <g class="font">
    <text x="1194" y="414" class="h2 ink">复核 Inspector</text>
    <rect x="1194" y="436" width="324" height="6" rx="3" fill="#f59e0b"/>
    <text x="1194" y="482" class="h2 ink">低推力轨迹优化方法研究</text>
    <text x="1194" y="512" class="small muted">张三 · 博士学位论文 · 2024</text>
    <text x="1194" y="540" class="small muted">哈尔滨工业大学 · 地点待确认</text>

    <rect x="1194" y="568" width="324" height="88" rx="12" fill="#fffaf0" stroke="#f4dfad"/>
    <text x="1216" y="598" class="small" fill="#8a5a00">需复核：缺少授予地点与导师。</text>
    <text x="1216" y="626" class="small" fill="#8a5a00">OCR 已识别题名、学校、年份。</text>

    <text x="1194" y="696" class="h2 ink">快捷操作</text>
    <rect x="1194" y="718" width="324" height="42" class="button" fill="#0f766e"/>
    <text x="1356" y="746" text-anchor="middle" class="small" fill="#fff">复核编辑</text>
    <rect x="1194" y="774" width="154" height="40" class="button" fill="#ecfdf3" stroke="#b7ead0"/>
    <text x="1271" y="800" text-anchor="middle" class="small" fill="#087443">AI 粗读</text>
    <rect x="1364" y="774" width="154" height="40" class="button" fill="#eef4ff" stroke="#bdd4ff"/>
    <text x="1441" y="800" text-anchor="middle" class="small" fill="#1f6feb">Zotero 检查</text>
    <rect x="1194" y="828" width="154" height="40" class="button" fill="#fff" stroke="#d9e2ec"/>
    <text x="1271" y="854" text-anchor="middle" class="small muted">一键通过</text>
    <rect x="1364" y="828" width="154" height="40" class="button" fill="#fff" stroke="#d9e2ec"/>
    <text x="1441" y="854" text-anchor="middle" class="small muted">重命名计划</text>
  </g>

  <!-- Bottom workflow bar -->
  <rect x="278" y="956" width="1268" height="42" rx="12" fill="#ffffff" stroke="#d9e2ec"/>
  <g class="font">
    <text x="306" y="982" class="xs muted">状态：扫描完成 · 96 条可导入 Zotero · 11 条待复核 · OCR 兜底 4 条 · API Key 未保存</text>
    <rect x="1250" y="965" width="92" height="24" class="pill" fill="#ecfdf3"/><text x="1296" y="982" text-anchor="middle" class="xs" fill="#087443">安全</text>
    <rect x="1352" y="965" width="152" height="24" class="pill" fill="#eef4ff"/><text x="1428" y="982" text-anchor="middle" class="xs" fill="#1f6feb">v0.6 UI draft</text>
  </g>
</svg>
